<svg id="logotipo" xmlns="http://www.w3.org/2000/svg" width="390" height="135" viewBox="0 0 390 145">
  <metadata><?xpacket begin="﻿" id="W5M0MpCehiHzreSzNTczkc9d"?>
<x:xmpmeta xmlns:x="adobe:ns:meta/" x:xmptk="Adobe XMP Core 5.6-c142 79.160924, 2017/07/13-01:06:39        ">
   <rdf:RDF xmlns:rdf="http://www.w3.org/1999/02/22-rdf-syntax-ns#">
      <rdf:Description rdf:about=""/>
   </rdf:RDF>
</x:xmpmeta>
                                                                                                    
                                                                                                    
                                                                                                    
                                                                                                    
                                                                                                    
                                                                                                    
                                                                                                    
                                                                                                    
                                                                                                    
                                                                                                    
                                                                                                    
                                                                                                    
                                                                                                    
                                                                                                    
                                                                                                    
                                                                                                    
                                                                                                    
                                                                                                    
                                                                                                    
                                                                                                    
                           
<?xpacket end="w"?></metadata>
<defs>
    <style>
      .cls-1 {
        fill: #ed2024;
      }

      .cls-2 {
        fill: #fff;
        fill-rule: evenodd;
      }
    </style>
  </defs>
  <rect class="cls-1" x="241.094" y="123.188" width="26.812" height="21.718"/>
  <path id="p" class="cls-2" d="M389.728,21.012c-1.335,8.014-5.8,29.707-5.8,29.707-2.137,10.416-13.5,21.736-26.829,21.736l-19.206.081-14.5,72.454H301.635l29-144.865h38.429L372.325,0A17.822,17.822,0,0,1,389.728,21.012Zm-29.536.12H348.183l-5.945,29.693h12.116a9.023,9.023,0,0,0,8.529-7.243c0.706-4,3.281-15.207,3.281-15.207A5.912,5.912,0,0,0,360.192,21.132ZM298.508,124.387c-2.665,13.413-15.392,20.522-25.524,20.522h-8.7c-10.988,0-18.176-9.721-17.011-20.183l-4.35,20.263h-42.8l29-144.865H250.88L226.245,123.173H247.5l0.477-2.089L271.906,0.124h21.752s-16.493,83.324-22.886,115.624l-0.836,3.887a2.956,2.956,0,0,0,2.986,3.622c2,0,4.636-1.622,4.989-3.622l0.874-3.708C287,74.907,301.634.124,301.634,0.124h21.752s-17.271,86.269-24.631,123.03Zm0.129-.565c-0.011.065-.031,0.125-0.043,0.19C298.631,123.833,298.65,123.75,298.637,123.822Zm-0.129.565c0.026-.127.062-0.247,0.086-0.375C298.353,125.164,297.319,130.327,298.508,124.387ZM195.067,21.816l-5.786,28.9h22.068l-4.683,21.816H199.55l-0.15.747H184.764l-9.989,49.892h21.347l-3.959,21.816H148.647l29-144.865h10.494l0-.124h32.631l-3.959,21.816h-21.75Zm-71.8,123.173H106.594L126.17,0.124h17.4l-10.411,74.29,24.911-74.29h17.4L126.9,144.989H123.27ZM97.176,21.816l-5.786,28.9h22.068l-4.683,21.816H87.022L76.884,123.173H98.231l-3.958,21.816H50.765l29-144.865H90.253l0-.124h32.631l-3.959,21.816H97.176Zm-49.7,101.357-3.958,21.816H0.011l29-144.865H50.765L26.13,123.173H47.473Z"/>
</svg>
