<!--?xml version="1.0" encoding="utf-8"?-->
<!-- Generator: Adobe Illustrator 16.0.4, SVG Export Plug-In . SVG Version: 6.00 Build 0)  -->

<svg version="1.1" id="Calque_1" xmlns="http://www.w3.org/2000/svg" xmlns:xlink="http://www.w3.org/1999/xlink" x="0px" y="0px" width="303.007" height="302.998" viewBox="114.083 151.082 10.5 10.5" enable-background="new 114.083 151.082 10.5 10.5" xml:space="preserve">
<g>
	<path fill="#D5B453" d="M119.219,160.652h0.184v0.93h-0.184V160.652z"></path>
	<path fill="#D5B453" d="M123.653,156.446v-0.183h0.931v0.183H123.653z"></path>
	<path fill="#D5B453" d="M115.014,156.264v0.183h-0.931v-0.183H115.014z"></path>
	<path fill="#D5B453" d="M119.402,152.013h-0.183v-0.931h0.183V152.013z"></path>
	<path fill-opacity="0.3" d="M123.692,153.458l-0.378,0.254l-0.045-0.067l0.008-0.046l0.379-0.254l0.045,0.067L123.692,153.458
		L123.692,153.458z"></path>
	<path fill-opacity="0.3" d="M115.287,158.937l0.068,0.093l-0.391,0.261l-0.07-0.092L115.287,158.937z"></path>
	<path fill-opacity="0.3" d="M116.322,151.974c0.025-0.017,0.049-0.032,0.077-0.051c0.018,0.022,0.036,0.044,0.051,0.066
		c0.075,0.111,0.15,0.224,0.226,0.338l-0.077,0.052c-0.017-0.021-0.035-0.041-0.049-0.062c-0.071-0.105-0.142-0.212-0.212-0.317
		C116.332,151.991,116.328,151.983,116.322,151.974L116.322,151.974z"></path>
	<path fill-opacity="0.3" d="M122.173,160.733l-0.209-0.312l-0.007-0.012c-0.051-0.076-0.05-0.079,0.038-0.119
		c0.004,0.005,0.009,0.01,0.013,0.017c0.077,0.115,0.154,0.23,0.232,0.346c0.013,0.02,0.012,0.031-0.009,0.043
		C122.211,160.706,122.194,160.72,122.173,160.733L122.173,160.733z"></path>
	<path fill-opacity="0.3" d="M124.447,155.264l0.019,0.096l-0.457,0.091l-0.02-0.096L124.447,155.264z"></path>
	<path fill-opacity="0.3" d="M114.145,157.312l0.457-0.091l0.019,0.096l-0.456,0.091L114.145,157.312z"></path>
	<path fill-opacity="0.3" d="M120.36,161.482l-0.09,0.019c-0.012-0.056-0.023-0.111-0.034-0.166
		c-0.018-0.089-0.035-0.178-0.054-0.267c-0.004-0.022-0.003-0.035,0.023-0.036c0.02-0.002,0.039-0.008,0.062-0.012L120.36,161.482z"></path>
	<path fill-opacity="0.3" d="M118.213,151.164l0.09-0.019l0.093,0.462l-0.091,0.02L118.213,151.164L118.213,151.164z"></path>
	<path fill-opacity="0.3" d="M115.92,152.908l-0.058,0.056l-0.328-0.327l0.06-0.055L115.92,152.908z"></path>
	<path fill-opacity="0.3" d="M122.724,152.972l-0.058-0.055l0.326-0.326l0.054,0.059
		C122.941,152.755,122.832,152.864,122.724,152.972z"></path>
	<path fill-opacity="0.3" d="M122.655,159.756l0.056-0.057l0.328,0.327l-0.059,0.055L122.655,159.756z"></path>
	<path fill-opacity="0.3" d="M115.895,159.689l0.059,0.057c-0.108,0.108-0.216,0.217-0.325,0.324l-0.057-0.058L115.895,159.689z"></path>
	<path fill-opacity="0.3" d="M122.183,151.907l0.077,0.051l-0.259,0.388l-0.077-0.051L122.183,151.907L122.183,151.907z"></path>
	<path fill-opacity="0.3" d="M116.59,160.278l0.076,0.051l-0.259,0.388l-0.077-0.051L116.59,160.278z"></path>
	<path fill-opacity="0.3" d="M117.414,160.732c0.028,0.012,0.055,0.022,0.085,0.035l-0.178,0.431l-0.085-0.035L117.414,160.732z"></path>
	<path fill-opacity="0.3" d="M121.173,151.896c-0.029-0.012-0.055-0.022-0.084-0.035l0.178-0.431l0.084,0.035L121.173,151.896z"></path>
	<path fill-opacity="0.3" d="M117.229,151.481l0.084-0.035l0.179,0.431l-0.084,0.035
		C117.348,151.769,117.289,151.625,117.229,151.481z"></path>
	<path fill-opacity="0.3" d="M121.345,161.179l-0.085,0.034l-0.178-0.43l0.084-0.036L121.345,161.179z"></path>
	<path fill-opacity="0.3" d="M123.692,159.215l-0.051,0.075l-0.386-0.258l0.051-0.076L123.692,159.215L123.692,159.215z"></path>
	<path fill-opacity="0.3" d="M120.27,151.145l0.09,0.017l-0.091,0.457l-0.09-0.017L120.27,151.145L120.27,151.145z"></path>
	<path fill-opacity="0.3" d="M114.908,153.456l0.051-0.076l0.386,0.258l-0.051,0.076L114.908,153.456z"></path>
	<path fill-opacity="0.3" d="M118.305,161.493l-0.09-0.019l0.091-0.456l0.09,0.018C118.365,161.188,118.336,161.338,118.305,161.493
		z"></path>
	<path fill-opacity="0.3" d="M114.869,158.128l0.035,0.085l-0.429,0.178l-0.035-0.085
		C114.583,158.246,114.725,158.188,114.869,158.128z"></path>
	<path fill-opacity="0.3" d="M124.46,157.317l-0.018,0.09l-0.456-0.091l0.018-0.09L124.46,157.317z"></path>
	<path fill-opacity="0.3" d="M124.136,158.388c-0.144-0.06-0.286-0.118-0.429-0.178l0.035-0.084l0.43,0.177L124.136,158.388z"></path>
	<path fill-opacity="0.3" d="M114.615,155.359l-0.018,0.09l-0.456-0.091l0.018-0.09L114.615,155.359z"></path>
	<path fill-opacity="0.3" d="M124.143,154.287l0.035,0.084l-0.429,0.178l-0.036-0.084
		C123.856,154.405,123.998,154.347,124.143,154.287L124.143,154.287z"></path>
	<path fill-opacity="0.3" d="M114.433,154.369l0.035-0.085l0.429,0.178l-0.035,0.085L114.433,154.369L114.433,154.369z"></path>
</g>
</svg>
